<svg width="30px" height="20px" viewBox="7 6 10 10" xmlns="http://www.w3.org/2000/svg">
  <path opacity="0.1"
    d="M10.9 8.8L10.6577 8.66152C10.1418 8.36676 9.5 8.73922 9.5 9.33333L9.5 14.6667C9.5 15.2608 10.1418 15.6332 10.6577 15.3385L10.9 15.2L15.1 12.8C15.719 12.4463 15.719 11.5537 15.1 11.2L10.9 8.8Z" />
  <path
    d="M10.9 8.8L10.6577 8.66152C10.1418 8.36676 9.5 8.73922 9.5 9.33333L9.5 14.6667C9.5 15.2608 10.1418 15.6332 10.6577 15.3385L10.9 15.2L15.1 12.8C15.719 12.4463 15.719 11.5537 15.1 11.2L10.9 8.8Z"
    stroke="currentColor" stroke-width="1.3" stroke-linecap="round" stroke-linejoin="round" />
</svg>
